# xmcd
#
# Track frame offsets:
# 150
# 14884
# 29905
# 51482
# 67325
# 81475
# 98790
# 118182
# 139727
# 158855
# 177540
# 196842
# 220009
# 242434
#
# Disc length: 3445 seconds
#
#
# Revision: 3
# Processed by: cddbd v1.5.2PL0 Copyright (c) Steve Scherf et al.
# Submitted via: FreeRIP 2.944 
#
DISCID=da0d730e
DTITLE=John Denver - Countryroad Take Me Home
DYEAR=1993
DGENRE=Country
TTITLE0=Take Me Home, Country Roads
TTITLE1=For You
TTITLE2=The Gift You Are
TTITLE3=Postcard From Paris
TTITLE4=Annie's Song
TTITLE5=Calypso
TTITLE6=Potter's Wheel
TTITLE7=Eagles And Horses
TTITLE8=Hold On To Me
TTITLE9=Tenderly Calling
TTITLE10=To The Wild Country
TTITLE11=Sunshine On My Shoulders
TTITLE12=I Watch You Sleeping
TTITLE13=Two Different Directions
EXTD=
EXTT0=
EXTT1=
EXTT2=
EXTT3=
EXTT4=
EXTT5=
EXTT6=
EXTT7=
EXTT8=
EXTT9=
EXTT10=
EXTT11=
EXTT12=
EXTT13=
PLAYORDER=
